<svg xmlns="http://www.w3.org/2000/svg" fill="none" viewBox="0 0 24 24" id="Blood-Pressure-Fill--Streamline-Rounded-Fill-Material" height="24" width="24"><desc>Blood Pressure Fill Streamline Icon: https://streamlinehq.com</desc><path fill="#000000" d="M19.125 15.575c0.1 -0.1 0.15 -0.21665 0.15 -0.35 0 -0.13335 -0.05 -0.25 -0.15 -0.35 -0.1 -0.1 -0.21665 -0.15 -0.35 -0.15 -0.13335 0 -0.25 0.05 -0.35 0.15l-1.575 1.55c-0.1 0.1 -0.15 0.22085 -0.15 0.3625s0.05 0.2625 0.15 0.3625c0.1 0.1 0.22085 0.15 0.3625 0.15s0.2625 -0.05 0.3625 -0.15l1.55 -1.575ZM17 21.75c-1.31665 0 -2.4375 -0.4625 -3.3625 -1.3875 -0.925 -0.925 -1.3875 -2.04585 -1.3875 -3.3625 0 -1.31665 0.4625 -2.4375 1.3875 -3.3625 0.925 -0.925 2.04585 -1.3875 3.3625 -1.3875 1.31665 0 2.4375 0.4625 3.3625 1.3875 0.925 0.925 1.3875 2.04585 1.3875 3.3625 0 1.31665 -0.4625 2.4375 -1.3875 3.3625 -0.925 0.925 -2.04585 1.3875 -3.3625 1.3875Zm-15 -10.5V5.5c0 -0.4 0.15 -0.75 0.45 -1.05C2.75 4.15 3.1 4 3.5 4h17c0.4 0 0.75 0.15 1.05 0.45 0.3 0.3 0.45 0.65 0.45 1.05v6.525c0 0.2 -0.1 0.34165 -0.3 0.425 -0.2 0.08335 -0.375 0.05 -0.525 -0.1 -0.56665 -0.51665 -1.20835 -0.9125 -1.925 -1.1875S17.78335 10.75 17 10.75c-0.61665 0 -1.20415 0.08335 -1.7625 0.25 -0.55835 0.16665 -1.07915 0.4 -1.5625 0.7l-2 -4.025c-0.06665 -0.13335 -0.1625 -0.22915 -0.2875 -0.2875 -0.125 -0.05835 -0.25415 -0.0875 -0.3875 -0.0875 -0.13335 0 -0.2625 0.02915 -0.3875 0.0875s-0.22085 0.15415 -0.2875 0.2875L7 14.325l-1.35 -2.65c-0.06665 -0.13335 -0.15835 -0.2375 -0.275 -0.3125 -0.11665 -0.075 -0.24165 -0.1125 -0.375 -0.1125H2ZM3.5 20c-0.4 0 -0.75 -0.15 -1.05 -0.45 -0.3 -0.3 -0.45 -0.65 -0.45 -1.05V12.75h2.525l1.775 3.6c0.08335 0.13335 0.18335 0.23335 0.3 0.3 0.11665 0.06665 0.25 0.1 0.4 0.1 0.13335 0 0.25835 -0.03335 0.375 -0.1 0.11665 -0.06665 0.20835 -0.16665 0.275 -0.3L11 9.7l1.475 3c-0.53335 0.56665 -0.95415 1.2125 -1.2625 1.9375 -0.30835 0.725 -0.4625 1.5125 -0.4625 2.3625 0 0.36665 0.02915 0.72915 0.0875 1.0875 0.05835 0.35835 0.15415 0.70415 0.2875 1.0375 0.08335 0.21665 0.0625 0.41665 -0.0625 0.6 -0.125 0.18335 -0.29585 0.275 -0.5125 0.275H3.5Z" stroke-width="0.5"></path></svg>